<svg width="600" height="600" viewBox="0 0 600 600" fill="none" xmlns="http://www.w3.org/2000/svg">
<g clip-path="url(#clip0_701_112)">
<circle cx="300" cy="300" r="300" fill="#5822F6"/>
<mask id="mask0_701_112" style="mask-type:luminance" maskUnits="userSpaceOnUse" x="412" y="52" width="50" height="496">
<path fill-rule="evenodd" clip-rule="evenodd" d="M412.018 52H461.67V547.931H412.018V52Z" fill="white"/>
</mask>
<g mask="url(#mask0_701_112)">
<path fill-rule="evenodd" clip-rule="evenodd" d="M412.018 522.513V77.4177C412.018 63.438 423.19 52 436.844 52C450.499 52 461.67 63.438 461.67 77.4177V522.513C461.67 536.493 450.499 547.931 436.844 547.931C423.19 547.931 412.018 536.493 412.018 522.513" fill="white"/>
</g>
<mask id="mask1_701_112" style="mask-type:luminance" maskUnits="userSpaceOnUse" x="77" y="411" width="296" height="137">
<path fill-rule="evenodd" clip-rule="evenodd" d="M77.8416 411.147H372.944V547.93H77.8416V411.147Z" fill="white"/>
</mask>
<g mask="url(#mask1_701_112)">
<path fill-rule="evenodd" clip-rule="evenodd" d="M372.944 435.38C372.944 421.996 362.694 411.147 350.049 411.147C340.929 411.147 333.056 416.791 329.374 424.958L329.357 424.951C329.272 425.163 329.159 425.358 329.029 425.542C328.959 425.725 328.869 425.896 328.768 426.059C328.686 426.28 328.579 426.486 328.45 426.679C310.783 468.305 271.301 497.31 225.393 497.31C178.688 497.31 138.645 467.284 121.449 424.494C121.369 424.381 121.312 424.252 121.249 424.128C121.171 424.02 121.094 423.911 121.031 423.792C120.914 423.666 120.793 423.541 120.701 423.39C120.621 423.26 120.527 423.141 120.445 423.014C120.223 422.77 120.052 422.485 119.928 422.174C115.844 415.539 108.778 411.147 100.738 411.147C88.0927 411.147 77.8416 421.996 77.8416 435.38C77.8416 437.485 78.0964 439.526 78.5725 441.473L78.5445 441.486C78.5637 441.549 78.573 441.615 78.5884 441.68C78.6005 441.713 78.6016 441.749 78.6126 441.782C78.7438 442.097 78.8245 442.433 78.8553 442.779C78.863 442.818 78.8778 442.854 78.8844 442.894C102.119 504.439 158.951 547.93 225.393 547.93C291.236 547.93 347.646 505.224 371.27 444.559L371.244 444.547C372.337 441.718 372.944 438.625 372.944 435.38" fill="white"/>
</g>
<mask id="mask2_701_112" style="mask-type:luminance" maskUnits="userSpaceOnUse" x="67" y="52" width="317" height="317">
<path fill-rule="evenodd" clip-rule="evenodd" d="M67 52H383.158V368.238H67V52Z" fill="white"/>
</mask>
<g mask="url(#mask2_701_112)">
<path fill-rule="evenodd" clip-rule="evenodd" d="M224.569 320.293C162.249 320.293 111.728 269.596 111.728 207.059C111.728 144.522 162.249 93.825 224.569 93.825C286.89 93.825 337.41 144.522 337.41 207.059C337.41 269.596 286.89 320.293 224.569 320.293V320.293ZM383.158 52H222.538L222.573 52.0253C136.471 53.101 67 123.463 67 210.119C67 297.446 137.547 368.238 224.571 368.238C311.06 368.238 381.263 298.31 382.121 211.723L383.158 213.18V52Z" fill="white"/>
</g>
</g>
<defs>
<clipPath id="clip0_701_112">
<rect width="600" height="600" fill="white"/>
</clipPath>
</defs>
</svg>
